# xmcd CD database file
#
# Track frame offsets:
#	150
#	24707
#	45464
#	69433
#	86930
#	103679
#	135298
#	152401
#	175728
#	198278
#	225575
#	245079
#
# Disc length: 3483 seconds
#
# Revision: 3
# Processed by: cddbd v1.5.2PL0 Copyright (c) Steve Scherf et al.
# Submitted via: CDex 1.51
#
DISCID=940d990c
DTITLE=BlancoTabak - Spot on Counting
DYEAR=2010
DGENRE=Jazz
TTITLE0=Blanco Tabak - Strolling to the Sun
TTITLE1=Blanco Tabak - In my Room
TTITLE2=Blanco Tabak - Broken Promise Land
TTITLE3=Blanco Tabak - Gare du Nord
TTITLE4=Blanco Tabak - Welcome to my Life
TTITLE5=Blanco Tabak - Dwars door me Heen
TTITLE6=Blanco Tabak - Get out of my Head
TTITLE7=Blanco Tabak - Blue Nights
TTITLE8=Blanco Tabak - Bring around your Roses
TTITLE9=Blanco Tabak - I got you Still
TTITLE10=Blanco Tabak - Call the Music in
TTITLE11=BlancoTabak - Into a lyrical Line
EXTD=YEAR: 2010
EXTT0=
EXTT1=
EXTT2=
EXTT3=
EXTT4=
EXTT5=
EXTT6=
EXTT7=
EXTT8=
EXTT9=
EXTT10=
EXTT11=
PLAYORDER=
